<?xml version="1.0" encoding="UTF-8" standalone="no"?>
<!-- Created with Inkscape (http://www.inkscape.org/) -->

<svg
   xmlns:dc="http://purl.org/dc/elements/1.1/"
   xmlns:cc="http://creativecommons.org/ns#"
   xmlns:rdf="http://www.w3.org/1999/02/22-rdf-syntax-ns#"
   xmlns:svg="http://www.w3.org/2000/svg"
   xmlns="http://www.w3.org/2000/svg"
   xmlns:xlink="http://www.w3.org/1999/xlink"
   xmlns:sodipodi="http://sodipodi.sourceforge.net/DTD/sodipodi-0.dtd"
   xmlns:inkscape="http://www.inkscape.org/namespaces/inkscape"
   width="576"
   height="576"
   viewBox="0 0 576.00001 576.00001"
   id="svg2"
   version="1.1"
   inkscape:version="0.91 r13725"
   sodipodi:docname="ic_launcher.svg">
  <defs
     id="defs4">
    <linearGradient
       inkscape:collect="always"
       id="linearGradient4350">
      <stop
         style="stop-color:#000000;stop-opacity:0.2"
         offset="0"
         id="stop4352" />
      <stop
         style="stop-color:#000000;stop-opacity:0"
         offset="1"
         id="stop4354" />
    </linearGradient>
    <linearGradient
       inkscape:collect="always"
       id="linearGradient4235">
      <stop
         style="stop-color:#ffffff;stop-opacity:0.2"
         offset="0"
         id="stop4237" />
      <stop
         style="stop-color:#ffffff;stop-opacity:0"
         offset="1"
         id="stop4239" />
    </linearGradient>
    <linearGradient
       inkscape:collect="always"
       xlink:href="#linearGradient4235"
       id="linearGradient4241"
       x1="112"
       y1="588.36218"
       x2="464"
       y2="940.36218"
       gradientUnits="userSpaceOnUse"
       gradientTransform="matrix(1.2,0,0,1.2,-57.59999,-152.87241)" />
    <filter
       inkscape:collect="always"
       style="color-interpolation-filters:sRGB"
       id="filter4346"
       x="-0.033"
       width="1.066"
       y="-0.088"
       height="1.176">
      <feGaussianBlur
         inkscape:collect="always"
         stdDeviation="5.28"
         id="feGaussianBlur4348" />
    </filter>
    <linearGradient
       inkscape:collect="always"
       xlink:href="#linearGradient4350"
       id="linearGradient4356"
       x1="96"
       y1="272"
       x2="376"
       y2="552"
       gradientUnits="userSpaceOnUse"
       gradientTransform="translate(0,476.36216)" />
    <filter
       inkscape:collect="always"
       style="color-interpolation-filters:sRGB"
       id="filter4223"
       x="-0.048"
       width="1.096"
       y="-0.048"
       height="1.096">
      <feGaussianBlur
         inkscape:collect="always"
         stdDeviation="11.52"
         id="feGaussianBlur4225" />
    </filter>
  </defs>
  <sodipodi:namedview
     id="base"
     pagecolor="#ffffff"
     bordercolor="#666666"
     borderopacity="1.0"
     inkscape:pageopacity="0.0"
     inkscape:pageshadow="2"
     inkscape:zoom="1.4142136"
     inkscape:cx="240.12886"
     inkscape:cy="212.47932"
     inkscape:document-units="px"
     inkscape:current-layer="layer1"
     showgrid="false"
     units="px"
     showguides="false"
     inkscape:guide-bbox="true"
     inkscape:window-width="2560"
     inkscape:window-height="1329"
     inkscape:window-x="1440"
     inkscape:window-y="1"
     inkscape:window-maximized="1"
     objecttolerance="10000"
     guidetolerance="10000"
     inkscape:snap-others="true"
     inkscape:object-nodes="true"
     inkscape:snap-smooth-nodes="true">
    <sodipodi:guide
       position="0,528.00001"
       orientation="0,1"
       id="guide4136"
       inkscape:label=""
       inkscape:color="rgb(0,0,255)" />
    <sodipodi:guide
       position="0,48.000001"
       orientation="0,1"
       id="guide4138"
       inkscape:label=""
       inkscape:color="rgb(0,0,255)" />
    <sodipodi:guide
       position="528.00001,0"
       orientation="1,0"
       id="guide4140"
       inkscape:label=""
       inkscape:color="rgb(0,0,255)" />
    <sodipodi:guide
       position="48.000001,0"
       orientation="1,0"
       id="guide4142"
       inkscape:label=""
       inkscape:color="rgb(0,0,255)" />
    <sodipodi:guide
       position="288,0"
       orientation="1,0"
       id="guide4165"
       inkscape:label=""
       inkscape:color="rgb(0,0,255)" />
    <sodipodi:guide
       position="0,288"
       orientation="0,1"
       id="guide4167"
       inkscape:label=""
       inkscape:color="rgb(0,0,255)" />
    <inkscape:grid
       type="xygrid"
       id="grid4169"
       empspacing="4"
       spacingx="2"
       spacingy="2"
       color="#ff0000"
       opacity="0.1254902" />
  </sodipodi:namedview>
  <metadata
     id="metadata7">
    <rdf:RDF>
      <cc:Work
         rdf:about="">
        <dc:format>image/svg+xml</dc:format>
        <dc:type
           rdf:resource="http://purl.org/dc/dcmitype/StillImage" />
        <dc:title />
      </cc:Work>
    </rdf:RDF>
  </metadata>
  <g
     inkscape:label="Layer 1"
     inkscape:groupmode="layer"
     id="layer1"
     transform="translate(0,-476.36216)">
    <circle
       cy="772.36218"
       cx="288"
       id="circle4167"
       style="opacity:1;fill:#000000;fill-opacity:0.2;stroke:none;stroke-width:20;stroke-linejoin:round;stroke-miterlimit:4;stroke-dasharray:none;stroke-opacity:1;filter:url(#filter4223)"
       r="288" />
    <circle
       style="opacity:1;fill:#795548;fill-opacity:1;stroke:none;stroke-width:20;stroke-linejoin:round;stroke-miterlimit:4;stroke-dasharray:none;stroke-opacity:1"
       id="path4163"
       cx="288"
       cy="764.36218"
       r="288" />
    <path
       style="fill:url(#linearGradient4356);fill-opacity:1;fill-rule:evenodd;stroke:none;stroke-width:1px;stroke-linecap:butt;stroke-linejoin:miter;stroke-opacity:1"
       d="M 480,668.36216 393.37695,732.70982 96,748.36216 210.28516,862.64732 200,876.36216 365.38867,1041.7508 A 288,288 0 0 0 576,764.36216 L 521.41016,709.77232 480,668.36216 Z"
       id="path4192"
       inkscape:connector-curvature="0" />
    <path
       id="path4344"
       d="m 432,678.36216 -16,32 c -17.26526,-8.01044 -36.2961,-15.88127 -57.21094,-21.81641 L 384,726.36216 l -32,0 -30.45508,-45.68359 c -5.60833,-0.76748 -11.32909,-1.36658 -17.17187,-1.75782 L 336,726.36216 l -32,0 -31.84961,-47.77539 c -5.19932,0.14953 -10.38503,0.37556 -15.54492,0.68555 L 288,726.36216 l -32,0 -29.45898,-44.1875 C 169.70523,689.92691 119.69241,710.99177 96,758.36216 c 64,31.99999 64,31 96,64 32,-1 127.99999,-1 160,0 16.26118,-16.76935 32,-16 64,-32 l 16,32 48,0 c -32,-47.99999 -32,-96 0,-144 l -48,0 z"
       style="opacity:1;fill:#000000;fill-opacity:0.2;stroke:none;stroke-width:20;stroke-linejoin:round;stroke-miterlimit:4;stroke-dasharray:none;stroke-opacity:1;filter:url(#filter4346)"
       inkscape:connector-curvature="0" />
    <path
       style="opacity:1;fill:#ffffff;fill-opacity:1;stroke:none;stroke-width:20;stroke-linejoin:round;stroke-miterlimit:4;stroke-dasharray:none;stroke-opacity:1"
       d="M 432 192 L 416 224 C 398.73474 215.98956 379.7039 208.11873 358.78906 202.18359 L 384 240 L 352 240 L 321.54492 194.31641 C 315.93659 193.54893 310.21583 192.94983 304.37305 192.55859 L 336 240 L 304 240 L 272.15039 192.22461 C 266.95107 192.37414 261.76536 192.60017 256.60547 192.91016 L 288 240 L 256 240 L 226.54102 195.8125 C 169.70523 203.56475 119.69241 224.62961 96 272 C 160 303.99999 160 303 192 336 C 224 335 319.99999 335 352 336 C 368.26118 319.23065 384 320 416 304 L 432 336 L 480 336 C 448 288.00001 448 240 480 192 L 432 192 z "
       transform="translate(0,476.36216)"
       id="path4173" />
    <path
       style="opacity:1;fill:#ffffff;fill-opacity:1;stroke:none;stroke-width:20;stroke-linejoin:round;stroke-miterlimit:4;stroke-dasharray:none;stroke-opacity:1"
       d="m 351.99999,844.36216 c 0,48 0,48 -79.99999,48 -48,0 -80,0 -80,-48 64,-2e-5 95.99998,-2e-5 159.99999,0 z"
       id="path4176"
       inkscape:connector-curvature="0"
       sodipodi:nodetypes="cscc" />
    <path
       style="opacity:1;fill:#000000;fill-opacity:0.2;stroke:none;stroke-width:20;stroke-linejoin:round;stroke-miterlimit:4;stroke-dasharray:none;stroke-opacity:1"
       d="m 432,668.36216 -16,32 c -17.26526,-8.01044 -36.2961,-15.88127 -57.21094,-21.81641 L 384,716.36216 l -32,0 -30.45508,-45.68359 c -5.60833,-0.76748 -11.32909,-1.36658 -17.17187,-1.75782 L 336,716.36216 l -32,0 -31.84961,-47.77539 c -5.19932,0.14953 -10.38503,0.37556 -15.54492,0.68555 L 288,716.36216 l -32,0 -29.45898,-44.1875 C 169.70523,679.92691 119.69241,700.99177 96,748.36216 l 360.3125,0 c -1.97531,-26.66666 5.90972,-53.33333 23.6875,-80 l -48,0 z"
       id="path4162"
       inkscape:connector-curvature="0" />
    <path
       style="opacity:1;fill:#ffffff;fill-opacity:0.2;stroke:none;stroke-width:20;stroke-linejoin:round;stroke-miterlimit:4;stroke-dasharray:none;stroke-opacity:1"
       d="M 288,476.36217 A 287.99999,287.99999 0 0 0 5e-6,764.36216 287.99999,287.99999 0 0 0 0.39844219,775.60278 287.99999,287.99999 0 0 1 288,495.56217 287.99999,287.99999 0 0 1 575.60155,772.32153 287.99999,287.99999 0 0 0 575.99999,764.36216 287.99999,287.99999 0 0 0 288,476.36217 Z"
       id="circle4245"
       inkscape:connector-curvature="0" />
    <path
       style="opacity:1;fill:#000000;fill-opacity:0.2;stroke:none;stroke-width:20;stroke-linejoin:round;stroke-miterlimit:4;stroke-dasharray:none;stroke-opacity:1"
       d="M 575.60127,761.16915 A 288.19948,280.25462 0 0 1 287.80051,1033.6785 288.19948,280.25462 0 0 1 -2.528e-4,764.36216 288.19948,280.25462 0 0 0 -0.3989661,772.10748 288.19948,280.25462 0 0 0 287.80051,1052.3622 288.19948,280.25462 0 0 0 575.99999,772.10748 288.19948,280.25462 0 0 0 575.60127,761.16915 Z"
       id="circle4250"
       inkscape:connector-curvature="0" />
    <path
       style="opacity:1;fill:#ffffff;fill-opacity:0.2;stroke:none;stroke-width:20;stroke-linejoin:round;stroke-miterlimit:4;stroke-dasharray:none;stroke-opacity:1"
       d="m 432,668.36216 -16,32 c -17.27102,-8.01311 -36.30134,-15.89537 -57.22266,-21.83398 l 13.4336,20.15039 c 15.71145,5.23887 30.28917,11.42014 43.78906,17.68359 l 16,-32 38.54102,0 c 2.76546,-5.33342 5.90337,-10.66658 9.45898,-16 l -48,0 z m -159.84961,0.22461 c -5.19932,0.1471 -10.38191,0.37959 -15.54101,0.68945 l 10.26562,15.39844 c 5.28545,-0.156 10.56105,-0.25345 15.80664,-0.28906 l -10.53125,-15.79883 z m 32.2207,0.33203 11.35157,17.02734 c 6.04898,0.68555 11.97252,1.56814 17.75976,2.63868 L 321.53711,670.6688 c -5.60499,-0.76708 -11.32803,-1.35687 -17.16602,-1.75 z m -77.82617,3.26172 C 169.70773,679.93105 119.6928,700.991 96,748.36216 123.48858,707.03918 178.26445,691.42232 236.03711,686.4188 l -9.49219,-14.23828 z"
       id="path4267"
       inkscape:connector-curvature="0" />
    <path
       style="fill:#795548;fill-opacity:1;fill-rule:evenodd;stroke:none;stroke-width:1px;stroke-linecap:butt;stroke-linejoin:miter;stroke-opacity:1"
       d="m 224,668.36217 32,48 31.99999,0 -31.99999,-48 z"
       id="path4161"
       inkscape:connector-curvature="0"
       sodipodi:nodetypes="ccccc" />
    <path
       sodipodi:nodetypes="ccccc"
       inkscape:connector-curvature="0"
       id="path4164"
       d="m 272,668.36217 32,48 31.99999,0 -31.99999,-48 z"
       style="fill:#795548;fill-opacity:1;fill-rule:evenodd;stroke:none;stroke-width:1px;stroke-linecap:butt;stroke-linejoin:miter;stroke-opacity:1" />
    <path
       style="fill:#795548;fill-opacity:1;fill-rule:evenodd;stroke:none;stroke-width:1px;stroke-linecap:butt;stroke-linejoin:miter;stroke-opacity:1"
       d="m 320,668.36217 32,48 31.99999,0 -31.99999,-48 z"
       id="path4166"
       inkscape:connector-curvature="0"
       sodipodi:nodetypes="ccccc" />
    <path
       style="opacity:1;fill:#000000;fill-opacity:0.2;stroke:none;stroke-width:20;stroke-linejoin:round;stroke-miterlimit:4;stroke-dasharray:none;stroke-opacity:1"
       d="m 95.999998,748.36217 c -2.60891,3.92192 2.178952,-4.35659 2e-6,-10e-6 64,31.99999 64,31 96,64 32,-1 127.99999,-1 160,0 16.26118,-16.76935 32,-16 64,-32 l 16,32 48,0 c -3.55561,-5.33342 -6.69352,-10.66658 -9.45898,-16 l -38.54102,0 -16,-32 c -32,16 -47.73882,15.23065 -64,32 -32.00001,-1 -128,-1 -160,0 -30.64119,-31.59873 -39.7563,-19.92666 -96.000002,-47.99999 z"
       id="path4260"
       inkscape:connector-curvature="0"
       sodipodi:nodetypes="ccccccccccccc" />
    <path
       style="opacity:1;fill:#ffffff;fill-opacity:0.2;stroke:none;stroke-width:20;stroke-linejoin:round;stroke-miterlimit:4;stroke-dasharray:none;stroke-opacity:1"
       d="M 192 368 C 192 370.83234 192.11443 373.49206 192.33398 376 C 256.06034 375.99998 288.13005 375.99998 351.98242 376 C 351.999 373.48574 352 370.8405 352 368 C 287.99999 367.99998 256 367.99998 192 368 z "
       transform="translate(0,476.36216)"
       id="path4275" />
    <path
       style="opacity:1;fill:#000000;fill-opacity:0.2;stroke:none;stroke-width:20;stroke-linejoin:round;stroke-miterlimit:4;stroke-dasharray:none;stroke-opacity:1"
       d="m 192,844.36216 c 0,48 32,48 80,48 79.99999,0 80,0 80,-48 -0.007,0 -0.0106,0 -0.0176,0 -0.26357,39.97283 -4.71659,40 -79.98242,40 -45.16766,0 -76.16483,-0.005 -79.66602,-40 -0.13331,0 -0.20039,0 -0.33398,0 z"
       id="path4280"
       inkscape:connector-curvature="0" />
    <circle
       style="opacity:1;fill:url(#linearGradient4241);fill-opacity:1;stroke:none;stroke-width:20;stroke-linejoin:round;stroke-miterlimit:4;stroke-dasharray:none;stroke-opacity:1"
       id="path4231"
       cx="288"
       cy="764.36218"
       r="288" />
  </g>
</svg>
