<?xml version="1.0" encoding="UTF-8" standalone="no"?>
<!-- Created with Inkscape (http://www.inkscape.org/) -->

<svg
   xmlns:dc="http://purl.org/dc/elements/1.1/"
   xmlns:cc="http://creativecommons.org/ns#"
   xmlns:rdf="http://www.w3.org/1999/02/22-rdf-syntax-ns#"
   xmlns:svg="http://www.w3.org/2000/svg"
   xmlns="http://www.w3.org/2000/svg"
   xmlns:xlink="http://www.w3.org/1999/xlink"
   xmlns:sodipodi="http://sodipodi.sourceforge.net/DTD/sodipodi-0.dtd"
   xmlns:inkscape="http://www.inkscape.org/namespaces/inkscape"
   width="576"
   height="576"
   viewBox="0 0 576.00001 576.00001"
   id="svg2"
   version="1.1"
   inkscape:version="0.91 r13725"
   sodipodi:docname="ic_launcher-2svg.svg">
  <defs
     id="defs4">
    <linearGradient
       inkscape:collect="always"
       id="white-tint">
      <stop
         style="stop-color:#3e2723;stop-opacity:0.2"
         offset="0"
         id="stop4197" />
      <stop
         style="stop-color:#000000;stop-opacity:0"
         offset="1"
         id="stop4199" />
    </linearGradient>
    <linearGradient
       id="linearGradient4201"
       inkscape:collect="always">
      <stop
         id="stop4183"
         offset="0"
         style="stop-color:#ffffff;stop-opacity:0.2" />
      <stop
         id="stop4185"
         offset="1"
         style="stop-color:#ffffff;stop-opacity:0" />
    </linearGradient>
    <linearGradient
       inkscape:collect="always"
       xlink:href="#linearGradient4235"
       id="linearGradient4241"
       x1="110.73161"
       y1="586.97089"
       x2="381.95605"
       y2="858.27521"
       gradientUnits="userSpaceOnUse"
       gradientTransform="matrix(1.1503388,0,0,1.1499999,-523.37886,-114.65426)" />
    <filter
       inkscape:collect="always"
       style="color-interpolation-filters:sRGB"
       id="filter4190"
       x="-0.04799293"
       width="1.0959859"
       y="-0.048007072"
       height="1.0960141">
      <feGaussianBlur
         inkscape:collect="always"
         stdDeviation="11.041625"
         id="feGaussianBlur4192" />
    </filter>
    <linearGradient
       inkscape:collect="always"
       xlink:href="#white-tint"
       id="linearGradient4206"
       x1="168"
       y1="680.36218"
       x2="468"
       y2="980.36218"
       gradientUnits="userSpaceOnUse" />
    <linearGradient
       inkscape:collect="always"
       xlink:href="#linearGradient4201"
       id="linearGradient4179"
       x1="84"
       y1="560.36218"
       x2="396"
       y2="872.36218"
       gradientUnits="userSpaceOnUse" />
  </defs>
  <sodipodi:namedview
     id="base"
     pagecolor="#ffffff"
     bordercolor="#666666"
     borderopacity="1.0"
     inkscape:pageopacity="0.0"
     inkscape:pageshadow="2"
     inkscape:zoom="1.3774125"
     inkscape:cx="202.57591"
     inkscape:cy="240.85835"
     inkscape:document-units="px"
     inkscape:current-layer="layer1"
     showgrid="true"
     units="px"
     showguides="false"
     inkscape:guide-bbox="true"
     inkscape:window-width="2560"
     inkscape:window-height="1329"
     inkscape:window-x="1440"
     inkscape:window-y="1"
     inkscape:window-maximized="1"
     objecttolerance="10000"
     guidetolerance="10000"
     inkscape:snap-others="true"
     inkscape:object-nodes="true"
     inkscape:snap-smooth-nodes="true">
    <sodipodi:guide
       position="0,528.00001"
       orientation="0,1"
       id="guide4136"
       inkscape:label=""
       inkscape:color="rgb(0,0,255)" />
    <sodipodi:guide
       position="0,48.000001"
       orientation="0,1"
       id="guide4138"
       inkscape:label=""
       inkscape:color="rgb(0,0,255)" />
    <sodipodi:guide
       position="528.00001,0"
       orientation="1,0"
       id="guide4140"
       inkscape:label=""
       inkscape:color="rgb(0,0,255)" />
    <sodipodi:guide
       position="48.000001,0"
       orientation="1,0"
       id="guide4142"
       inkscape:label=""
       inkscape:color="rgb(0,0,255)" />
    <sodipodi:guide
       position="288,0"
       orientation="1,0"
       id="guide4165"
       inkscape:label=""
       inkscape:color="rgb(0,0,255)" />
    <sodipodi:guide
       position="0,288"
       orientation="0,1"
       id="guide4167"
       inkscape:label=""
       inkscape:color="rgb(0,0,255)" />
    <inkscape:grid
       type="xygrid"
       id="grid4169"
       empspacing="3"
       spacingx="12"
       spacingy="12"
       color="#ff0000"
       opacity="0.1254902" />
    <sodipodi:guide
       position="0,564.00001"
       orientation="0,1"
       id="guide4172"
       inkscape:label=""
       inkscape:color="rgb(0,0,255)" />
    <sodipodi:guide
       position="0,12"
       orientation="0,1"
       id="guide4178"
       inkscape:label=""
       inkscape:color="rgb(0,0,255)" />
    <sodipodi:guide
       position="12,0"
       orientation="1,0"
       id="guide4180"
       inkscape:label=""
       inkscape:color="rgb(0,0,255)" />
    <sodipodi:guide
       position="564.00001,0"
       orientation="1,0"
       id="guide4182"
       inkscape:label=""
       inkscape:color="rgb(0,0,255)" />
  </sodipodi:namedview>
  <metadata
     id="metadata7">
    <rdf:RDF>
      <cc:Work
         rdf:about="">
        <dc:format>image/svg+xml</dc:format>
        <dc:type
           rdf:resource="http://purl.org/dc/dcmitype/StillImage" />
        <dc:title />
      </cc:Work>
    </rdf:RDF>
  </metadata>
  <g
     inkscape:label="Layer 1"
     inkscape:groupmode="layer"
     id="layer1"
     transform="translate(0,-476.36216)">
    <ellipse
       ry="275.99997"
       rx="276.0813"
       cy="776.36218"
       cx="287.9187"
       id="ellipse4188"
       style="opacity:1;fill:#000000;fill-opacity:0.2;stroke:none;stroke-width:20;stroke-linejoin:round;stroke-miterlimit:4;stroke-dasharray:none;stroke-opacity:1;filter:url(#filter4190)" />
    <ellipse
       style="opacity:1;fill:#795548;fill-opacity:1;stroke:none;stroke-width:20;stroke-linejoin:round;stroke-miterlimit:4;stroke-dasharray:none;stroke-opacity:1"
       id="path4163"
       cx="287.9187"
       cy="764.36218"
       rx="276.0813"
       ry="275.99997" />
    <path
       style="fill:url(#linearGradient4206);fill-opacity:1;fill-rule:evenodd;stroke:none;stroke-width:1px;stroke-linecap:butt;stroke-linejoin:miter;stroke-opacity:1"
       d="m 480,668.36216 -96,60 -288,12 L 217.93555,862.29771 202,864.36216 367.54102,1028.3544 C 487.16314,995.26605 563.99401,888.4422 564,764.36216 c -0.0535,-4.14993 -0.20072,-8.29812 -0.44141,-12.44141 z"
       id="path4198"
       inkscape:connector-curvature="0"
       sodipodi:nodetypes="ccccccccc" />
    <path
       style="opacity:1;fill:#fafafa;fill-opacity:1;stroke:none;stroke-width:20;stroke-linejoin:round;stroke-miterlimit:4;stroke-dasharray:none;stroke-opacity:0"
       d="m 348.00012,812.36216 c -1.3e-4,-24 23.99987,-36 59.99987,-36 l 24.00013,36 48,0 c -24.00013,-59.99999 -24.00013,-83.99999 0,-144 l -48,0 -1.2e-4,0 -24.00001,36.00001 c -36,-36 -84,-48 -131.99999,-48 -47.99999,0 -120,12 -180,83.99999 72,36 96,48 96,72 l 0,24 c 0,36.00004 36,48.00004 84.00003,48.00004 48.00003,0 71.99996,0 71.99996,-48.00004 z M 324,812.18052 l 0,24.18164 c -54.86401,-2e-5 -53.136,-2e-5 -108,0 l 0,-24.19922 c 51.91594,0.26911 67.26117,0.0177 108,0.0176 z"
       id="path4173"
       inkscape:connector-curvature="0"
       sodipodi:nodetypes="cccccccczccczccccccc" />
    <path
       style="opacity:1;fill:#ffffff;fill-opacity:0.2;stroke:none;stroke-width:20;stroke-linejoin:round;stroke-miterlimit:4;stroke-dasharray:none;stroke-opacity:1"
       d="M 287.91869,488.36216 A 276.0813,275.99998 0 0 0 11.837388,764.36214 276.0813,275.99998 0 0 0 11.996537,768.85433 276.0813,275.99998 0 0 1 287.91869,496.02883 276.0813,275.99998 0 0 1 563.84085,767.53662 276.0813,275.99998 0 0 0 564,764.36214 276.0813,275.99998 0 0 0 287.91869,488.36216 Z"
       id="circle4202"
       inkscape:connector-curvature="0" />
    <path
       style="opacity:0.2;fill:#3e2723;fill-opacity:1;stroke:none;stroke-width:20;stroke-linejoin:round;stroke-miterlimit:4;stroke-dasharray:none;stroke-opacity:1"
       d="M 563.84085,759.86995 A 276.0813,275.99998 0 0 1 287.91869,1032.6955 276.0813,275.99998 0 0 1 11.996537,761.18766 276.0813,275.99998 0 0 0 11.837388,764.36214 276.0813,275.99998 0 0 0 287.91869,1040.3622 276.0813,275.99998 0 0 0 564,764.36214 a 276.0813,275.99998 0 0 0 -0.15915,-4.49219 z"
       id="circle4207"
       inkscape:connector-curvature="0" />
    <path
       style="opacity:0.2;fill:#212121;fill-opacity:1;stroke:none;stroke-width:20;stroke-linejoin:round;stroke-miterlimit:4;stroke-dasharray:none;stroke-opacity:0"
       d="m 96,740.36216 c 72,36 96,48 96,72 l 0,-12 c 0,-24 -60,-47.99999 -96,-60 z"
       id="path4234"
       inkscape:connector-curvature="0"
       sodipodi:nodetypes="cccc" />
    <path
       style="opacity:0.2;fill:#212121;fill-opacity:1;stroke:none;stroke-width:20;stroke-linejoin:round;stroke-miterlimit:4;stroke-dasharray:none;stroke-opacity:0"
       d="m 408,764.36216 c -36,0 -60.00013,12 -60,36 l 0,12 c -1.3e-4,-24 24,-36 60,-36 l 24,36 48,0 c -12.00001,-12 -24.00001,-12 -48,-12 z"
       id="path4232"
       inkscape:connector-curvature="0"
       sodipodi:nodetypes="cscccccc" />
    <path
       style="opacity:0.2;fill:#212121;fill-opacity:1;stroke:none;stroke-width:20;stroke-linejoin:round;stroke-miterlimit:4;stroke-dasharray:none;stroke-opacity:0"
       d="m 216,800.16294 0,12 c 51.91594,0.26911 67.26117,0.0177 108,0.0176 l 0,-12 c -40.73883,10e-5 -56.08406,0.25153 -108,-0.0176 z"
       id="path4229" />
    <path
       style="opacity:0.2;fill:#212121;fill-opacity:1;stroke:none;stroke-width:20;stroke-linejoin:round;stroke-miterlimit:4;stroke-dasharray:none;stroke-opacity:0"
       d="m 192,824.36216 0,12 c 0,36 35.99997,48 84,48 48.00003,0 72,0 72,-48 l 0,-12 c 0,48 -23.99997,48 -72,48 -48.00003,0 -84,-12 -84,-48 z"
       id="path4222" />
    <path
       style="opacity:0.2;fill:#fafafa;fill-opacity:1;stroke:none;stroke-width:20;stroke-linejoin:round;stroke-miterlimit:4;stroke-dasharray:none;stroke-opacity:0"
       d="m 276,656.36216 c -47.99999,0 -120,12.00001 -180,84 48,-47.99999 122.05301,-71.41107 180,-72 47.99999,0 96,12 132,48 l 24,-36 c 23.99999,10e-6 35.99999,10e-6 48,-12 l -48,0 -24,36 c -36,-36 -84.00001,-48 -132,-48 z"
       id="path4253"
       inkscape:connector-curvature="0"
       sodipodi:nodetypes="scccccccs" />
    <path
       style="opacity:0.2;fill:#fafafa;fill-opacity:1;stroke:#fffff0;stroke-width:20;stroke-linejoin:round;stroke-miterlimit:4;stroke-dasharray:none;stroke-opacity:0"
       d="m 216,836.36216 0,12 c 54.864,-2e-5 53.13599,-2e-5 108,0 l 0,-12 c -54.86401,-2e-5 -53.136,-2e-5 -108,0 z"
       id="path4244" />
    <ellipse
       id="ellipse4171"
       style="opacity:1;fill:url(#linearGradient4179);fill-opacity:1.0;stroke:none;stroke-width:20;stroke-linejoin:round;stroke-miterlimit:4;stroke-dasharray:none;stroke-opacity:1"
       ry="275.99997"
       rx="276.0813"
       cy="764.36218"
       cx="287.9187" />
  </g>
</svg>
