<?xml version="1.0" encoding="UTF-8" standalone="no"?>
<!-- Created with Inkscape (http://www.inkscape.org/) -->

<svg
   xmlns:dc="http://purl.org/dc/elements/1.1/"
   xmlns:cc="http://creativecommons.org/ns#"
   xmlns:rdf="http://www.w3.org/1999/02/22-rdf-syntax-ns#"
   xmlns:svg="http://www.w3.org/2000/svg"
   xmlns="http://www.w3.org/2000/svg"
   xmlns:xlink="http://www.w3.org/1999/xlink"
   xmlns:sodipodi="http://sodipodi.sourceforge.net/DTD/sodipodi-0.dtd"
   xmlns:inkscape="http://www.inkscape.org/namespaces/inkscape"
   width="576"
   height="576"
   viewBox="0 0 576.00001 576.00001"
   id="svg2"
   version="1.1"
   inkscape:version="0.91 r13725"
   sodipodi:docname="ic_launcher.svg">
  <defs
     id="defs4">
    <linearGradient
       inkscape:collect="always"
       id="linearGradient4235">
      <stop
         style="stop-color:#ffffff;stop-opacity:0.2"
         offset="0"
         id="stop4237" />
      <stop
         style="stop-color:#ffffff;stop-opacity:0"
         offset="1"
         id="stop4239" />
    </linearGradient>
    <linearGradient
       inkscape:collect="always"
       xlink:href="#linearGradient4235"
       id="linearGradient4241"
       x1="112"
       y1="588.36218"
       x2="464"
       y2="940.36218"
       gradientUnits="userSpaceOnUse"
       gradientTransform="matrix(1.2,0,0,1.2,-57.59999,-152.87241)" />
    <filter
       inkscape:collect="always"
       style="color-interpolation-filters:sRGB"
       id="filter4346"
       x="-0.033"
       width="1.066"
       y="-0.088"
       height="1.176">
      <feGaussianBlur
         inkscape:collect="always"
         stdDeviation="5.28"
         id="feGaussianBlur4348" />
    </filter>
    <filter
       inkscape:collect="always"
       style="color-interpolation-filters:sRGB"
       id="filter4223"
       x="-0.048"
       width="1.096"
       y="-0.048"
       height="1.096">
      <feGaussianBlur
         inkscape:collect="always"
         stdDeviation="11.52"
         id="feGaussianBlur4225" />
    </filter>
    <filter
       inkscape:collect="always"
       style="color-interpolation-filters:sRGB"
       id="filter4183"
       x="-0.048"
       width="1.096"
       y="-0.048"
       height="1.096">
      <feGaussianBlur
         inkscape:collect="always"
         stdDeviation="11.52"
         id="feGaussianBlur4185" />
    </filter>
  </defs>
  <sodipodi:namedview
     id="base"
     pagecolor="#ffffff"
     bordercolor="#666666"
     borderopacity="1.0"
     inkscape:pageopacity="0.0"
     inkscape:pageshadow="2"
     inkscape:zoom="1.4142136"
     inkscape:cx="317.2035"
     inkscape:cy="305.40217"
     inkscape:document-units="px"
     inkscape:current-layer="layer1"
     showgrid="false"
     units="px"
     showguides="false"
     inkscape:guide-bbox="true"
     inkscape:window-width="2560"
     inkscape:window-height="1329"
     inkscape:window-x="1440"
     inkscape:window-y="1"
     inkscape:window-maximized="1"
     objecttolerance="10000"
     guidetolerance="10000"
     inkscape:snap-others="true"
     inkscape:object-nodes="true"
     inkscape:snap-smooth-nodes="true">
    <sodipodi:guide
       position="0,528.00001"
       orientation="0,1"
       id="guide4136"
       inkscape:label=""
       inkscape:color="rgb(0,0,255)" />
    <sodipodi:guide
       position="0,48.000001"
       orientation="0,1"
       id="guide4138"
       inkscape:label=""
       inkscape:color="rgb(0,0,255)" />
    <sodipodi:guide
       position="528.00001,0"
       orientation="1,0"
       id="guide4140"
       inkscape:label=""
       inkscape:color="rgb(0,0,255)" />
    <sodipodi:guide
       position="48.000001,0"
       orientation="1,0"
       id="guide4142"
       inkscape:label=""
       inkscape:color="rgb(0,0,255)" />
    <sodipodi:guide
       position="288,0"
       orientation="1,0"
       id="guide4165"
       inkscape:label=""
       inkscape:color="rgb(0,0,255)" />
    <sodipodi:guide
       position="0,288"
       orientation="0,1"
       id="guide4167"
       inkscape:label=""
       inkscape:color="rgb(0,0,255)" />
    <inkscape:grid
       type="xygrid"
       id="grid4169"
       empspacing="4"
       spacingx="2"
       spacingy="2"
       color="#ff0000"
       opacity="0.1254902" />
  </sodipodi:namedview>
  <metadata
     id="metadata7">
    <rdf:RDF>
      <cc:Work
         rdf:about="">
        <dc:format>image/svg+xml</dc:format>
        <dc:type
           rdf:resource="http://purl.org/dc/dcmitype/StillImage" />
        <dc:title />
      </cc:Work>
    </rdf:RDF>
  </metadata>
  <g
     inkscape:label="Layer 1"
     inkscape:groupmode="layer"
     id="layer1"
     transform="translate(0,-476.36216)">
    <circle
       r="288"
       cy="772.36218"
       cx="288"
       id="circle4177"
       style="opacity:1;fill:#000000;fill-opacity:0.2;stroke:none;stroke-width:20;stroke-linejoin:round;stroke-miterlimit:4;stroke-dasharray:none;stroke-opacity:1;filter:url(#filter4183)" />
    <circle
       cy="772.36218"
       cx="288"
       id="circle4167"
       style="opacity:1;fill:#000000;fill-opacity:0.2;stroke:none;stroke-width:20;stroke-linejoin:round;stroke-miterlimit:4;stroke-dasharray:none;stroke-opacity:1;filter:url(#filter4223)"
       r="288" />
    <circle
       style="opacity:1;fill:#795548;fill-opacity:1;stroke:none;stroke-width:20;stroke-linejoin:round;stroke-miterlimit:4;stroke-dasharray:none;stroke-opacity:1"
       id="path4163"
       cx="288"
       cy="764.36218"
       r="288" />
    <path
       id="path4344"
       d="m 432,678.36216 -16,32 c -17.26526,-8.01044 -36.2961,-15.88127 -57.21094,-21.81641 L 384,726.36216 l -32,0 -30.45508,-45.68359 c -5.60833,-0.76748 -11.32909,-1.36658 -17.17187,-1.75782 L 336,726.36216 l -32,0 -31.84961,-47.77539 c -5.19932,0.14953 -10.38503,0.37556 -15.54492,0.68555 L 288,726.36216 l -32,0 -29.45898,-44.1875 C 169.70523,689.92691 119.69241,710.99177 96,758.36216 c 64,31.99999 64,31 96,64 32,-1 127.99999,-1 160,0 16.26118,-16.76935 32,-16 64,-32 l 16,32 48,0 c -32,-47.99999 -32,-96 0,-144 l -48,0 z"
       style="opacity:1;fill:#000000;fill-opacity:0.2;stroke:none;stroke-width:20;stroke-linejoin:round;stroke-miterlimit:4;stroke-dasharray:none;stroke-opacity:1;filter:url(#filter4346)"
       inkscape:connector-curvature="0" />
    <path
       style="opacity:1;fill:#ffffff;fill-opacity:1;stroke:none;stroke-width:20;stroke-linejoin:round;stroke-miterlimit:4;stroke-dasharray:none;stroke-opacity:1"
       d="M 432 192 L 416 224 C 398.73474 215.98956 379.7039 208.11873 358.78906 202.18359 L 384 240 L 352 240 L 321.54492 194.31641 C 315.93659 193.54893 310.21583 192.94983 304.37305 192.55859 L 336 240 L 304 240 L 272.15039 192.22461 C 266.95107 192.37414 261.76536 192.60017 256.60547 192.91016 L 288 240 L 256 240 L 226.54102 195.8125 C 169.70523 203.56475 119.69241 224.62961 96 272 C 160 303.99999 160 303 192 336 L 192 368 L 192 370 L 192.04297 370 C 192.94374 415.96584 224.68786 416 272 416 C 350.81645 416 351.97884 415.90099 351.99609 370 L 352 370 L 352 368 L 352 336 C 368.26118 319.23065 384 320 416 304 L 432 336 L 480 336 C 448 288.00001 448 240 480 192 L 432 192 z M 272.13867 335.25586 C 299.46657 335.25948 326.74824 335.44805 344 335.81836 L 344 368 C 289.13599 367.99998 254.864 367.99998 200 368 L 200 335.80078 C 217.43663 335.43359 244.81077 335.25224 272.13867 335.25586 z "
       transform="translate(0,476.36216)"
       id="path4173" />
    <circle
       style="opacity:1;fill:url(#linearGradient4241);fill-opacity:1;stroke:none;stroke-width:20;stroke-linejoin:round;stroke-miterlimit:4;stroke-dasharray:none;stroke-opacity:1"
       id="path4231"
       cx="288"
       cy="764.36218"
       r="288" />
    <path
       style="opacity:1;fill:#ffffff;fill-opacity:0.2;stroke:none;stroke-width:20;stroke-linejoin:round;stroke-miterlimit:4;stroke-dasharray:none;stroke-opacity:1"
       d="M 288 0 A 288 288 0 0 0 0 288 A 288 288 0 0 0 0.16601562 292.6875 A 288 288 0 0 1 288 8 A 288 288 0 0 1 575.83398 291.3125 A 288 288 0 0 0 576 288 A 288 288 0 0 0 288 0 z "
       transform="translate(0,476.36216)"
       id="circle4202" />
    <path
       style="opacity:1;fill:#000000;fill-opacity:0.2;stroke:none;stroke-width:20;stroke-linejoin:round;stroke-miterlimit:4;stroke-dasharray:none;stroke-opacity:1"
       d="M 575.83398 283.3125 A 288 288 0 0 1 288 568 A 288 288 0 0 1 0.16601562 284.6875 A 288 288 0 0 0 0 288 A 288 288 0 0 0 288 576 A 288 288 0 0 0 576 288 A 288 288 0 0 0 575.83398 283.3125 z "
       transform="translate(0,476.36216)"
       id="circle4207" />
    <path
       style="opacity:1;fill:#000000;fill-opacity:0.2;stroke:none;stroke-width:20;stroke-linejoin:round;stroke-miterlimit:4;stroke-dasharray:none;stroke-opacity:1"
       d="m 474.97852,192 c -13.43199,22.66658 -19.73404,45.33342 -18.89454,68 0.83951,-22.66666 8.80491,-45.33334 23.91602,-68 z m -170.60547,0.55859 31.62694,47.44142 6,0 -31.99218,-46.99024 c -1.86718,-0.169 -3.7423,-0.32445 -5.63476,-0.45118 z m -42.61133,0.084 c -1.72003,0.0847 -3.44148,0.16456 -5.15625,0.26758 L 288,240.00001 l 5.99999,0 z m 97.02734,9.54101 25.21093,37.81642 6,0 -24.56054,-35.84181 c -2.19647,-0.67771 -4.41086,-1.33908 -6.65039,-1.97461 z M 99.396484,265.69727 C 98.211523,267.74464 97.077849,269.84496 96,272 c 64,31.99999 64,31 96,64 l 0,-8 C 160.64127,295.66131 159.63806,295.78624 99.396484,265.69727 Z M 416,296 c -32,16 -47.73882,15.23065 -64,32 l 0,8 c 16.26118,-16.76935 32,-16 64,-32 l 16,32 48,0 c -1.77784,-2.66676 -3.44119,-5.33324 -5.02148,-8 L 432,328 Z m -143.86133,31.25586 c -27.3279,-0.004 -54.70204,0.17773 -72.13867,0.54492 l 0,8 c 17.43663,-0.36719 44.81077,-0.54854 72.13867,-0.54492 27.3279,0.004 54.60957,0.19219 71.86133,0.5625 l 0,-8 c -17.25176,-0.37031 -44.53343,-0.5585 -71.86133,-0.5625 z M 192,362 l 0,6 0,2 0.043,0 c 0.90077,45.96584 32.64489,46 79.95703,46 78.81645,0 79.97884,-0.099 79.99609,-46 l 0.004,0 0,-2 0,-6 -0.004,0 c -0.0172,45.901 -1.17964,46 -79.99609,46 -47.31214,0 -79.05626,-0.0342 -79.95703,-46 z"
       transform="translate(0,476.36216)"
       id="path4219"
       inkscape:connector-curvature="0"
       sodipodi:nodetypes="ccccccccccccccccccccccccccccccccccccscccccccscccccscc" />
  </g>
</svg>
